<?xml version="1.0" encoding="UTF-8"?>
<svg id="a" xmlns="http://www.w3.org/2000/svg" viewBox="0 0 512 512">
  <g>
    <path d="M123.1,244.23l-4.14,2.45c-.77-1.34-1.51-2.22-2.21-2.63-.73-.47-1.67-.7-2.83-.7-1.42,0-2.59.4-3.53,1.2-.93.79-1.4,1.78-1.4,2.98,0,1.65,1.23,2.98,3.68,3.99l3.37,1.38c2.74,1.11,4.75,2.47,6.02,4.06,1.27,1.6,1.9,3.56,1.9,5.88,0,3.11-1.04,5.68-3.12,7.71-2.09,2.04-4.68,3.07-7.78,3.07-2.93,0-5.36-.88-7.27-2.63-1.88-1.75-3.06-4.21-3.53-7.36l5.17-1.14c.23,1.99.64,3.36,1.23,4.12,1.05,1.46,2.58,2.19,4.6,2.19,1.59,0,2.91-.53,3.96-1.6,1.05-1.06,1.58-2.41,1.58-4.05,0-.66-.09-1.26-.27-1.8-.18-.55-.47-1.05-.85-1.51-.39-.46-.89-.89-1.5-1.29-.61-.4-1.34-.78-2.19-1.15l-3.26-1.36c-4.63-1.95-6.94-4.81-6.94-8.58,0-2.54.98-4.66,2.93-6.37,1.95-1.72,4.37-2.58,7.26-2.58,3.9,0,6.94,1.9,9.13,5.7Z" style="fill: #fff;"/>
    <path d="M135.15,259.28v13.74h-5.05v-33.81h5.79c2.84,0,4.98.2,6.43.59,1.46.39,2.75,1.14,3.86,2.23,1.95,1.9,2.92,4.29,2.92,7.18,0,3.09-1.04,5.55-3.13,7.35-2.09,1.81-4.9,2.71-8.45,2.71h-2.38ZM135.15,254.57h1.92c4.73,0,7.1-1.81,7.1-5.41s-2.44-5.24-7.32-5.24h-1.7v10.65Z" style="fill: #fff;"/>
    <path d="M171.72,264.83h-14.48l-3.77,8.19h-5.5l16.73-35.94,16.14,35.94h-5.58l-3.55-8.19ZM169.64,260.01l-5.02-11.5-5.26,11.5h10.27Z" style="fill: #fff;"/>
    <path d="M196.5,258.61l10.5,14.41h-6.26l-9.7-13.84h-.92v13.84h-5.05v-33.81h5.98c4.47,0,7.7.84,9.68,2.52,2.19,1.87,3.29,4.34,3.29,7.4,0,2.39-.69,4.45-2.07,6.18-1.38,1.72-3.2,2.82-5.46,3.31ZM190.12,254.76h1.63c4.86,0,7.29-1.85,7.29-5.54,0-3.46-2.36-5.19-7.09-5.19h-1.83v10.73Z" style="fill: #fff;"/>
    <path d="M230.68,244.03h-13.56v8.07h13.16v4.82h-13.16v11.27h13.56v4.82h-18.6v-33.81h18.6v4.82Z" style="fill: #fff;"/>
    <path d="M237.44,273.02v-33.81h5.08c2.26,0,4.07.17,5.41.53,1.36.35,2.5.94,3.44,1.77.95.86,1.7,1.94,2.26,3.22.57,1.3.85,2.61.85,3.94,0,2.42-.93,4.47-2.78,6.15,1.8.61,3.22,1.69,4.27,3.22,1.06,1.52,1.6,3.28,1.6,5.3,0,2.64-.94,4.88-2.81,6.7-1.13,1.12-2.39,1.9-3.8,2.34-1.54.42-3.46.63-5.77.63h-7.75ZM242.49,253.73h1.62c1.92,0,3.33-.42,4.22-1.26.89-.84,1.34-2.07,1.34-3.7s-.46-2.79-1.37-3.62c-.92-.82-2.24-1.24-3.99-1.24h-1.82v9.81ZM242.49,268.19h3.18c2.33,0,4.04-.45,5.13-1.35,1.15-.98,1.72-2.21,1.72-3.72s-.55-2.68-1.66-3.67c-1.08-.98-3-1.46-5.77-1.46h-2.61v10.2Z" style="fill: #fff;"/>
    <path d="M269.01,239.21v20.33c0,2.9.48,5.02,1.44,6.36,1.43,1.94,3.44,2.91,6.04,2.91s4.63-.97,6.06-2.91c.96-1.3,1.44-3.42,1.44-6.36v-20.33h5.05v21.77c0,3.56-1.11,6.5-3.33,8.8-2.5,2.57-5.57,3.85-9.21,3.85s-6.7-1.28-9.19-3.85c-2.22-2.31-3.33-5.24-3.33-8.8v-21.77h5.05Z" style="fill: #fff;"/>
    <path d="M306.44,244.03v28.99h-5.05v-28.99h-7.78v-4.82h20.57v4.82h-7.75Z" style="fill: #fff;"/>
    <path d="M328.72,244.03v28.99h-5.05v-28.99h-7.77v-4.82h20.57v4.82h-7.75Z" style="fill: #fff;"/>
    <path d="M380.02,273.02v-36.11l24.67,25.8v-23.5h5.05v35.88l-24.67-25.75v23.68h-5.05Z" style="fill: #fff;"/>
  </g>
  <path d="M355.94,238.48c-9.77,0-17.69,7.92-17.69,17.69s7.92,17.69,17.69,17.69,17.69-7.92,17.69-17.69-7.92-17.69-17.69-17.69ZM351.02,263.79c-1.49,0-2.71-1.21-2.71-2.7s1.21-2.71,2.71-2.71,2.71,1.21,2.71,2.71-1.21,2.7-2.71,2.7ZM351.02,253.95c-1.49,0-2.71-1.21-2.71-2.71s1.21-2.71,2.71-2.71,2.71,1.21,2.71,2.71-1.21,2.71-2.71,2.71ZM360.86,263.79c-1.49,0-2.71-1.21-2.71-2.7s1.21-2.71,2.71-2.71,2.7,1.21,2.7,2.71-1.21,2.7-2.7,2.7ZM360.86,253.95c-1.49,0-2.71-1.21-2.71-2.71s1.21-2.71,2.71-2.71,2.7,1.21,2.7,2.71-1.21,2.71-2.7,2.71Z" style="fill: #fff;"/>
</svg>