<?xml version="1.0" encoding="UTF-8"?>
<svg xmlns="http://www.w3.org/2000/svg" viewBox="0 0 512 64">
  <g>
    <path d="M34.68,12.4l-6.89,4.09c-1.29-2.24-2.52-3.7-3.68-4.38-1.22-.78-2.79-1.17-4.7-1.17-2.36,0-4.32.67-5.87,2.01-1.56,1.31-2.34,2.97-2.34,4.96,0,2.75,2.04,4.96,6.12,6.64l5.61,2.3c4.57,1.85,7.91,4.11,10.02,6.77,2.11,2.66,3.17,5.93,3.17,9.79,0,5.18-1.73,9.46-5.19,12.84-3.48,3.4-7.8,5.11-12.95,5.11-4.89,0-8.92-1.46-12.11-4.38-3.14-2.92-5.09-7-5.87-12.25l8.61-1.9c.39,3.31,1.07,5.59,2.04,6.86,1.75,2.43,4.3,3.65,7.66,3.65,2.65,0,4.85-.89,6.6-2.66,1.75-1.77,2.63-4.02,2.63-6.74,0-1.09-.15-2.09-.46-3-.3-.91-.78-1.75-1.42-2.51-.64-.77-1.48-1.48-2.5-2.15-1.02-.67-2.24-1.31-3.65-1.91l-5.43-2.26c-7.71-3.25-11.56-8.01-11.56-14.28,0-4.22,1.62-7.76,4.87-10.6,3.24-2.86,7.28-4.3,12.09-4.3,6.49,0,11.56,3.16,15.21,9.49Z"/>
    <path d="M54.75,37.46v22.87h-8.4V4.04h9.65c4.73,0,8.3.33,10.71.98,2.44.66,4.58,1.9,6.43,3.72,3.24,3.16,4.86,7.15,4.86,11.96,0,5.15-1.74,9.23-5.22,12.25-3.48,3.01-8.17,4.52-14.07,4.52h-3.97ZM54.75,29.62h3.2c7.88,0,11.83-3.01,11.83-9.02s-4.07-8.72-12.19-8.72h-2.84v17.74Z"/>
    <path d="M115.66,46.7h-24.11l-6.27,13.63h-9.15L103.99.49l26.88,59.85h-9.3l-5.91-13.63ZM112.19,38.68l-8.35-19.15-8.75,19.15h17.11Z"/>
    <path d="M156.92,36.34l17.49,23.99h-10.42l-16.16-23.05h-1.54v23.05h-8.4V4.04h9.96c7.44,0,12.82,1.4,16.13,4.19,3.65,3.11,5.47,7.22,5.47,12.33,0,3.99-1.15,7.42-3.44,10.28-2.3,2.87-5.32,4.7-9.09,5.5ZM146.29,29.94h2.71c8.09,0,12.13-3.08,12.13-9.23,0-5.76-3.93-8.64-11.8-8.64h-3.04v17.87Z"/>
    <path d="M213.84,12.07h-22.58v13.45h21.92v8.03h-21.92v18.77h22.58v8.03h-30.98V4.04h30.98v8.03Z"/>
    <path d="M225.09,60.34V4.04h8.46c3.77,0,6.77.29,9.01.88,2.26.58,4.17,1.57,5.73,2.95,1.58,1.44,2.83,3.22,3.76,5.36.95,2.16,1.42,4.35,1.42,6.56,0,4.03-1.54,7.45-4.63,10.25,2.99,1.02,5.36,2.81,7.11,5.36,1.77,2.53,2.66,5.47,2.66,8.82,0,4.4-1.56,8.12-4.68,11.16-1.88,1.87-3.98,3.17-6.32,3.9-2.56.71-5.76,1.06-9.61,1.06h-12.9ZM233.5,28.22h2.69c3.2,0,5.54-.7,7.03-2.09,1.49-1.39,2.23-3.45,2.23-6.17s-.76-4.65-2.29-6.02c-1.52-1.37-3.74-2.06-6.64-2.06h-3.02v16.34ZM233.5,52.31h5.3c3.88,0,6.72-.75,8.54-2.26,1.91-1.63,2.87-3.69,2.87-6.19s-.92-4.46-2.76-6.11c-1.79-1.63-4.99-2.44-9.61-2.44h-4.34v16.99Z"/>
    <path d="M277.66,4.04v33.86c0,4.83.8,8.36,2.39,10.6,2.38,3.23,5.73,4.84,10.05,4.84s7.71-1.61,10.09-4.84c1.59-2.16,2.39-5.69,2.39-10.6V4.04h8.4v36.25c0,5.93-1.85,10.82-5.55,14.66-4.16,4.28-9.28,6.42-15.34,6.42s-11.16-2.14-15.3-6.42c-3.7-3.84-5.55-8.73-5.55-14.66V4.04h8.4Z"/>
    <path d="M340,12.07v48.27h-8.4V12.07h-12.95V4.04h34.26v8.03h-12.91Z"/>
    <path d="M377.09,12.07v48.27h-8.4V12.07h-12.95V4.04h34.26v8.03h-12.91Z"/>
    <path d="M462.52,60.34V.21l41.08,42.96V4.04h8.4v59.75l-41.08-42.88v39.43h-8.4Z"/>
  </g>
  <path d="M422.43,2.82c-16.27,0-29.46,13.19-29.46,29.46s13.19,29.46,29.46,29.46,29.46-13.19,29.46-29.46-13.19-29.46-29.46-29.46ZM414.24,44.97c-2.49,0-4.5-2.02-4.5-4.5s2.02-4.51,4.5-4.51,4.51,2.02,4.51,4.51-2.02,4.5-4.51,4.5ZM414.24,28.59c-2.49,0-4.5-2.02-4.5-4.51s2.02-4.5,4.5-4.5,4.51,2.02,4.51,4.5-2.02,4.51-4.51,4.51ZM430.62,44.97c-2.49,0-4.51-2.02-4.51-4.5s2.02-4.51,4.51-4.51,4.5,2.02,4.5,4.51-2.02,4.5-4.5,4.5ZM430.62,28.59c-2.49,0-4.51-2.02-4.51-4.51s2.02-4.5,4.51-4.5,4.5,2.02,4.5,4.5-2.02,4.51-4.5,4.51Z"/>
</svg>